<?xml version="1.0" encoding="UTF-8"?>
<svg id="_レイヤー_1" xmlns="http://www.w3.org/2000/svg" version="1.1" viewBox="0 0 640.4 201.2">
  <!-- Generator: Adobe Illustrator 29.6.0, SVG Export Plug-In . SVG Version: 2.1.1 Build 142)  -->
  <defs>
    <style>
      .st0 {
        fill: #ae5355;
      }

      .st1 {
        display: none;
        fill: none;
      }

      .st2 {
        fill: #9c9c9c;
      }

      .st3 {
        fill: #fff;
      }

      .st3, .st4 {
        opacity: .3;
      }

      .st5 {
        opacity: .2;
      }

      .st4 {
        fill: #fafafa;
      }
    </style>
  </defs>
  <g id="_レイヤー_2" class="st5">
    <rect class="st3" width="640.4" height="201.2"/>
    <rect class="st1" x="5.2" y="6.9" width="629.3" height="188.2"/>
  </g>
  <path class="st0" d="M233.4,150.2v9.8c-1.5-.1-2.8-1.9-3.8-2.9-4.4-4.6-8.2-10-12.4-14.8,4.8-5.5,9.1-11.8,14.2-17.1.6-.6,1-1.3,2-1.2v10.4h55.8c2,0,5.7-3.8,6.5-5.7,2.9-7.6-2.7-12.8-9.9-13.4-13.8-1.2-41.1,2.8-52.6-1.3-17.7-6.2-21.9-29.9-7.6-42.1,2.4-2.1,9.1-5.8,12.1-5.8h70c0,0,.9.8.9.9v13.3c0,0-.8.9-.9.9h-67.7c-.8,0-4.4,2.2-5.1,2.9-6.1,6.3-1.6,15.4,6.9,16.2,15.3,1.4,33.5-1.7,48.6,0,18.1,2.1,27.4,24.4,16.8,39.2-3.2,4.5-12.3,10.4-17.9,10.4h-55.8Z"/>
  <path class="st2" d="M567.9,42.5v24.9h46.9v7.5h-46.9v63.4c0,.7,1.1,5.1,1.5,6.1.8,2.2,2.3,4.3,4.4,5.4.5.2,3.5,1.5,3.7,1.5h37.3v7.5h-36.8c-3.6,0-10.5-2.8-13-5.5s-5.2-9.4-5.2-12.8v-65.7h-32.7c-11.4,0-22.4,9.3-26,19.7-6.6,19-1.6,44.2-3.2,64.2h-8.1v-91.4h8.1v15.6c1.4.3,1-.3,1.3-.7,1.7-1.9,2.7-3.8,4.7-5.7,14.6-13.2,37.8-8.3,55.9-9.2v-24.9h8.1Z"/>
  <path class="st2" d="M90.8,42.5c35.4,3.6,37.5,58.4,3.8,65.7l25.5,50.6h-9.3l-25.2-49.2h-43.7v49.2h-8.1V42.5h57ZM41.9,102.1h43.1c29.1,0,33.6-41.3,10.9-50.2-.8-.3-5.9-1.9-6.2-1.9h-47.7s0,52.1,0,52.1Z"/>
  <path class="st2" d="M214.9,113.1h-85.7c0,15.6,4.3,29.9,19.9,36,9.2,3.6,24.5,3.8,34,1.4,13.2-3.5,21.3-14,22.6-27.5h8.7c-3.2,29.8-30.2,41.2-57.4,36.9s-37.7-27.7-35.7-53.9c2.4-32.9,32.1-45.5,61.7-38.6,22.6,5.3,31.8,23.8,32,45.8h0ZM206.2,105.6c-1.5-10.7-5.2-20.9-14.9-26.5-11.4-6.6-32-6.5-44-1.4-11.3,4.8-17.2,15.8-17.6,27.9h76.4Z"/>
  <path class="st2" d="M471.8,140.9l-4.6,6.6c-15,17.8-52.6,17-68.6.9-16.1-16.3-16.5-53.6-.6-70s57.1-18.1,71.1,2.9l2.6,4.6v-18.5h8.7v91.4h-8.7v-17.9h0ZM425.4,74.5c-20,1.8-29.4,15-30.6,34.2-1.4,23.5,7.3,41.5,32.7,43.2,32.7,2.1,46.6-13.1,44.3-45.5-1.9-26.8-22.4-34.2-46.4-31.9h0Z"/>
  <path class="st2" d="M338.1,42.5v24.9h46.9v7.5h-46.9v66.3c0,.2,1.1,3.4,1.3,3.9,2,4.4,6.6,5.9,11.1,6.2,10.8.9,22.6-.7,33.5,0,1.8.6.6,5.8,1,7.4h-39.1c-8.9,0-16.5-9.8-16.5-18.2v-65.7h-15.6v-7.5h15.6v-24.9h8.7Z"/>
  <path class="st4" d="M41.9,102.1v-52.1h47.7c.3,0,5.5,1.6,6.2,1.9,22.7,8.9,18.2,50.2-10.9,50.2,0,0-43.1,0-43.1,0Z"/>
  <path class="st4" d="M206.2,105.6h-76.4c.3-12.1,6.3-23,17.6-27.9,12-5.2,32.6-5.3,44,1.4,9.7,5.6,13.4,15.9,14.9,26.5h0Z"/>
  <path class="st4" d="M425.4,74.5c24-2.2,44.5,5.1,46.4,31.9,2.3,32.4-11.6,47.6-44.3,45.5-25.4-1.7-34.1-19.7-32.7-43.2,1.2-19.2,10.6-32.4,30.6-34.2h0Z"/>
</svg>