<?xml version="1.0" encoding="utf-8"?>
<!-- Generator: Adobe Illustrator 29.5.1, SVG Export Plug-In . SVG Version: 9.03 Build 0)  -->
<svg version="1.0" id="レイヤー_1" xmlns="http://www.w3.org/2000/svg" xmlns:xlink="http://www.w3.org/1999/xlink" x="0px"
	 y="0px" viewBox="0 0 387 387" style="enable-background:new 0 0 387 387;" xml:space="preserve">
<style type="text/css">
	.st0{fill:#A54F50;}
</style>
<path class="st0" d="M314.4,73.7V116H121.6c-1,0-7,3.5-8.5,4.5c-21.1,13.7-13.1,46.9,11.7,49.3c42.5,4.1,130.9-10.1,164.7,9.4
	c45.5,26.2,46.4,93.8,0.6,119.9c-3.9,2.2-18.5,8.9-22,8.9H104.6v29.3c-2.9,0.6-4-1.5-5.7-3.2c-14-14.5-25.7-31.9-39.7-46.6l45.4-51
	v29.3h158.6c0.5,0,6.9-4,8.1-4.9c21-15.7,10-46.5-16.2-48.9c-41.2-3.7-125.3,9.1-158.7-7.2C50.1,182.2,46,114.9,88.5,86.1
	c7.3-5,22.9-12.3,31.6-12.3H314.4z"/>
</svg>
